<?xml version="1.0" standalone="no"?>
<!DOCTYPE svg PUBLIC "-//W3C//DTD SVG 20010904//EN"
 "http://www.w3.org/TR/2001/REC-SVG-20010904/DTD/svg10.dtd">
<svg version="1.0" xmlns="http://www.w3.org/2000/svg"
 width="512.000000pt" height="512.000000pt" viewBox="0 0 512.000000 512.000000"
 preserveAspectRatio="xMidYMid meet">
<metadata>
Created by potrace 1.11, written by Peter Selinger 2001-2013
</metadata>
<g transform="translate(0.000000,512.000000) scale(0.100000,-0.100000)"
fill="#000000" stroke="none">
<path d="M3275 5052 c-52 -10 -175 -84 -244 -147 -117 -105 -197 -196 -360
-413 -60 -80 -96 -120 -104 -115 -7 4 -64 41 -127 83 -282 187 -461 290 -661
380 -93 42 -186 78 -224 86 -11 2 -45 10 -75 17 -74 17 -179 14 -234 -7 -27
-10 -60 -34 -80 -57 -129 -152 -75 -480 169 -1013 19 -43 34 -80 32 -82 -2 -2
-73 -27 -158 -55 -264 -87 -496 -191 -648 -289 -34 -22 -64 -40 -67 -40 -12 0
-193 -151 -247 -206 -173 -175 -257 -378 -243 -586 3 -49 11 -98 16 -108 6
-10 10 -26 10 -35 0 -32 73 -167 122 -226 173 -209 454 -324 864 -355 49 -4
151 -7 226 -7 l136 0 -9 -24 c-4 -12 -6 -23 -4 -23 2 0 0 -11 -5 -24 -5 -13
-12 -43 -15 -67 -4 -24 -8 -46 -10 -50 -6 -9 -44 -235 -50 -299 -3 -30 -8 -75
-11 -99 -12 -86 -10 -318 3 -430 59 -521 349 -825 761 -797 155 10 299 68 441
174 232 175 473 516 653 926 22 50 43 95 48 100 7 7 83 -41 145 -92 6 -4 51
-34 100 -67 484 -319 940 -356 1224 -99 145 132 221 315 221 536 0 333 -157
714 -475 1150 -53 72 -93 134 -88 139 4 4 84 53 176 109 236 141 337 216 452
334 146 150 187 247 154 363 -40 145 -318 272 -697 319 -20 2 -53 6 -72 9 -19
2 -71 7 -115 11 -44 3 -92 8 -107 9 -41 5 -265 18 -340 19 -37 1 -69 4 -72 7
-2 2 -7 108 -10 234 -4 127 -8 246 -10 265 -28 292 -109 474 -235 529 -46 20
-101 24 -156 13z m145 -62 c68 -35 110 -105 146 -247 37 -145 47 -341 30 -583
-5 -63 -8 -122 -8 -130 0 -13 -35 -15 -258 -15 l-259 0 -103 78 c-57 43 -147
110 -201 149 -83 60 -97 74 -91 92 4 11 10 23 13 26 4 3 35 50 71 105 100 158
205 289 307 384 155 146 261 188 353 141z m-1870 -125 c143 -49 339 -154 510
-274 73 -51 219 -160 236 -176 6 -5 52 -44 102 -85 51 -41 92 -78 92 -83 0 -4
-39 -70 -87 -147 -81 -128 -90 -140 -118 -141 -16 0 -39 -2 -50 -4 -11 -3 -56
-9 -100 -15 -44 -6 -91 -13 -105 -16 -46 -8 -75 -13 -112 -18 -20 -3 -101 -20
-180 -36 -79 -17 -154 -33 -168 -36 -14 -3 -34 -8 -45 -11 -11 -4 -26 -8 -33
-9 -25 -4 -194 312 -256 479 -84 224 -105 413 -56 507 25 49 39 63 85 86 46
22 191 12 285 -21z m1098 -749 c24 -23 62 -58 85 -78 23 -21 39 -38 37 -38 -3
-1 -39 -3 -80 -5 -41 -2 -103 -6 -137 -10 -73 -7 -72 -14 -8 112 23 46 42 70
49 66 6 -4 30 -25 54 -47z m1797 -239 c22 -4 76 -12 120 -18 238 -34 428 -125
471 -228 72 -169 -194 -427 -680 -660 -128 -61 -124 -61 -182 5 -102 120 -144
164 -330 353 -140 141 -191 199 -189 213 2 11 7 77 11 146 3 70 7 138 8 152 1
33 8 37 74 39 31 1 58 3 60 5 5 6 594 -1 637 -7z m-886 -54 c-4 -27 -13 -81
-19 -120 -14 -84 -6 -85 -111 9 -35 31 -81 70 -103 87 -21 17 -33 31 -25 32 8
0 23 2 34 4 11 3 43 7 70 10 57 7 159 22 161 24 1 0 -2 -20 -7 -46z m-550 -72
c16 -18 154 -170 186 -205 27 -30 185 -216 214 -255 l34 -43 -23 -97 c-12 -53
-28 -114 -35 -136 -6 -22 -20 -67 -29 -100 -10 -33 -36 -117 -57 -186 l-40
-127 -147 -36 c-81 -20 -156 -38 -167 -41 -11 -2 -56 -11 -100 -21 -44 -9 -84
-17 -90 -18 -5 -1 -54 -11 -108 -21 l-98 -19 -62 66 c-160 169 -237 254 -348
387 l-53 64 62 186 c35 102 69 200 76 216 8 17 33 80 56 140 24 61 47 115 51
121 8 10 89 33 165 48 10 2 57 13 104 25 88 21 170 40 205 47 11 2 31 6 45 9
14 3 38 8 55 11 16 3 31 7 33 9 10 10 55 -5 71 -24z m-970 -268 c-24 -43 -66
-121 -94 -174 l-50 -97 -84 114 c-46 63 -81 118 -77 121 9 9 316 112 334 113
8 0 -3 -29 -29 -77z m-347 -283 l107 -189 -31 -63 c-35 -72 -178 -405 -178
-414 0 -3 -6 -20 -14 -37 -7 -18 -24 -58 -37 -91 l-22 -58 -176 6 c-97 3 -189
8 -206 10 -16 3 -70 10 -120 16 -254 31 -469 128 -491 223 -11 44 -11 47 -2
91 31 145 304 356 713 552 110 53 324 143 340 143 6 0 58 -85 117 -189z m2023
-304 c52 -73 95 -136 95 -139 0 -7 -251 -90 -255 -85 -2 2 3 37 10 78 7 41 15
93 18 115 3 22 9 65 13 95 5 30 7 58 6 63 -1 4 2 7 8 7 5 0 52 -60 105 -134z
m-1623 -369 c48 -72 86 -132 85 -133 -2 -2 -92 -11 -196 -20 -51 -5 -63 -3
-59 8 3 7 20 73 39 146 18 72 36 132 39 131 3 0 44 -59 92 -132z m1879 -14
c154 -250 352 -678 384 -830 24 -113 14 -218 -26 -275 -33 -46 -74 -62 -164
-61 -157 1 -380 97 -659 286 -180 122 -166 90 -118 269 39 141 102 413 116
499 4 21 12 41 19 47 6 5 66 34 132 63 92 41 219 103 242 118 1 0 34 -52 74
-116z m-841 -270 c-13 -32 -31 -76 -40 -98 -9 -22 -27 -66 -40 -97 -12 -32
-25 -58 -29 -58 -10 1 -206 188 -201 192 10 8 325 125 329 122 2 -2 -7 -29
-19 -61z m-696 -200 c89 -111 206 -248 289 -337 56 -60 103 -115 105 -122 7
-27 -154 -319 -281 -509 -178 -267 -322 -417 -465 -483 -206 -95 -326 143
-322 633 0 72 2 146 4 165 2 19 7 72 10 117 4 46 9 91 10 100 3 16 11 78 22
161 1 12 7 53 14 90 l11 68 97 18 c132 24 257 53 377 86 124 34 113 33 129 13z"/>
</g>
</svg>
